<svg width="180" height="53" viewBox="0 0 180 53" xmlns="http://www.w3.org/2000/svg">
  <path d="M1.523 35.0586c.103-.268.3115-.482.5768-.592.265-.1102.5637-.107.8264.009.5567.2383 1.1935.4558 1.9093.6556 1.1837.3304 2.4333.4956 3.7487.4956 1.315 0 2.3204-.2624 3.0158-.7872.695-.5247 1.0615-1.3313 1.099-2.4197 0-.778-.2254-1.449-.6764-2.012-.451-.564-1.024-1.098-1.7193-1.604-.6952-.506-1.4374-1.021-2.2266-1.545-.7892-.525-1.5314-1.128-2.2265-1.808-.6952-.681-1.2684-1.487-1.7194-2.42-.451-.933-.6764-2.061-.6764-3.382 0-1.283.2444-2.469.733-3.557.4883-1.089 1.1742-2.022 2.0573-2.799.8832-.778 1.9542-1.38 3.213-1.808 1.259-.428 2.6777-.642 4.256-.642 2.1796 0 3.9835.165 5.4116.496.9942.23 1.8426.502 2.5454.817.48.23.7098.784.5343 1.286-.3347.972-.8894 2.558-1.2532 3.598-.0923.264-.2862.48-.5387.6-.252.12-.542.135-.805.041-.526-.184-1.109-.344-1.75-.484-1.071-.2338-2.189-.35-3.354-.35-1.202 0-2.151.214-2.846.641-.695.427-1.043 1.108-1.043 2.0403 0 .622.226 1.176.677 1.662.451.486 1.024.9815 1.719 1.487.695.5053 1.438 1.0204 2.227 1.5452.79.525 1.532 1.1563 2.227 1.895.695.7384 1.268 1.584 1.719 2.5364.451.9527.677 2.09.677 3.411 0 3.227-1.014 5.627-3.043 7.201-2.029 1.575-4.735 2.362-8.117 2.362-1.916 0-3.673-.1845-5.27-.554-1.1332-.262-2.0814-.568-2.846-.918-.4832-.2395-.705-.808-.5112-1.311.3848-1.015 1.032-2.6974 1.453-3.792zm38.595 5.7578c-.3152 0-.6138-.1418-.8132-.3862-.1992-.2444-.278-.5654-.2148-.8742l3.0753-14.998c.3758-1.7104.5637-3.1293.5637-4.2565 0-1.0107-.188-1.7395-.5637-2.1866-.376-.448-.9583-.671-1.7475-.671-.714 0-1.4657.233-2.255.699-.789.466-1.5406 1.049-2.2546 1.749-.714.699-1.3624 1.448-1.9448 2.245-.5824.797-1.024 1.525-1.3248 2.186L29.5293 39.97c-.0975.4913-.5287.845-1.0295.845h-4.7862c-.3153 0-.6137-.1416-.813-.3857-.1993-.2443-.2783-.5654-.2152-.874L30.599.839c.1-.488.5297-.839 1.0284-.839h4.782c.3165 0 .616.143.8153.3888.1993.2458.277.5683.2116.878L34.1528 16.793h.2255c.4885-.6218 1.0804-1.2827 1.7758-1.9825.696-.6996 1.466-1.341 2.312-1.924.846-.5833 1.766-1.0692 2.762-1.4578.996-.3888 2.077-.5832 3.242-.5832 1.804 0 3.204.4666 4.2 1.3994.996.933 1.494 2.585 1.494 4.956 0 1.438-.225 3.265-.676 5.481l-3.549 17.295c-.1.488-.529.838-1.028.838H40.12zm12.2755-9.4462c0-3.071.4227-5.8697 1.2684-8.3964.845-2.5266 1.972-4.6842 3.382-6.4723 1.409-1.788 3.044-3.1778 4.904-4.169 1.86-.9914 3.805-1.487 5.834-1.487 1.803 0 3.326.2916 4.566.8748 1.24.583 2.245 1.3605 3.016 2.3322.77.9718 1.325 2.0798 1.663 3.3237.338 1.244.507 2.5267.507 3.8483 0 3.032-.414 5.8018-1.24 8.309-.827 2.5073-1.935 4.655-3.326 6.4432-1.391 1.7882-3.007 3.1777-4.848 4.169-1.842.9913-3.777 1.487-5.807 1.487-1.766 0-3.27-.3013-4.51-.904-1.24-.6023-2.264-1.3895-3.072-2.3612-.808-.972-1.4-2.0702-1.776-3.2946-.376-1.225-.564-2.459-.564-3.703zm7.159-.991c0 3.4985 1.2214 5.2476 3.664 5.2476.902 0 1.785-.408 2.6494-1.2245.864-.8162 1.634-1.8854 2.311-3.207.676-1.3217 1.212-2.8182 1.606-4.4898.394-1.6714.592-3.343.592-5.0145 0-1.555-.254-2.7503-.761-3.586-.508-.8358-1.456-1.2536-2.847-1.2536-.902 0-1.785.3887-2.65 1.166-.865.7776-1.635 1.798-2.311 3.0614-.677 1.2634-1.222 2.7113-1.635 4.344-.414 1.6326-.62 3.2847-.62 4.9563zm24.8898-17.878c.1-.4884.5297-.8392 1.0284-.8392h3.164c.2885 0 .5642.1184.7623.328.1982.2094.3015.4912.2858.779-.083 1.5085-.221 4.024-.221 4.024h.2254c.5262-.7384 1.1275-1.4673 1.8038-2.1865.6764-.719 1.428-1.351 2.255-1.895.8267-.5443 1.7097-.9912 2.6493-1.341.9395-.35 1.954-.525 3.044-.525 1.9166 0 3.4572.6804 4.6223 2.041 1.165 1.3604 1.7474 3.4983 1.7474 6.4138 0 3.3042-.4227 6.3266-1.2683 9.067-.8455 2.7406-1.973 5.0923-3.3822 7.0555-1.4092 1.963-3.0628 3.4888-4.9606 4.577-1.898 1.0887-3.881 1.6328-5.947 1.6328-.978 0-1.898-.0972-2.763-.2914-.865-.1944-1.503-.447-1.917-.758l-2.253 11.055c-.1.4887-.53.84-1.029.84h-4.734c-.316-.0003-.614-.1417-.814-.386-.2-.244-.278-.565-.215-.874 1.271-6.22 6.86-33.5632 7.913-38.717zm2.3136 22.1344c.939.661 1.991.9912 3.156.9912s2.273-.408 3.325-1.2245c1.052-.8162 1.982-1.9048 2.79-3.2653.808-1.3605 1.446-2.9445 1.916-4.752.47-1.8078.482-2.702.482-4.6843 0-1.1275-.254-2.0507-.761-2.7698-.508-.72-1.193-1.079-2.058-1.079-.676 0-1.334.175-1.973.525-.639.35-1.24.787-1.804 1.312-.564.524-1.071 1.117-1.522 1.778-.451.66-.846 1.302-1.184 1.924l-2.37 11.244zm41.951 2.7042c.131.4175-.01.8723-.355 1.142-1.075.8093-2.388 1.5107-3.942 2.1013-1.842.7-3.984 1.05-6.426 1.05-3.044 0-5.44-.923-7.188-2.769-1.748-1.846-2.621-4.422-2.621-7.726 0-3.109.469-5.918 1.409-8.425.939-2.507 2.17-4.635 3.692-6.385 1.522-1.749 3.241-3.1 5.158-4.052 1.916-.952 3.833-1.428 5.749-1.428 1.541 0 2.865.204 3.974.612 1.108.409 2.019.972 2.734 1.691.714.72 1.24 1.546 1.578 2.478.338.933.507 1.925.507 2.974 0 1.594-.395 2.993-1.184 4.198-.789 1.205-1.889 2.206-3.298 3.003-1.41.797-3.11 1.4-5.102 1.808-1.992.408-4.172.612-6.539.612-.301 0-.583-.01-.846-.029-.263-.019-.545-.029-.846-.029-.075.467-.132.885-.169 1.254-.038.37-.057.71-.057 1.021 0 1.749.4415 3.052 1.325 3.907.883.855 2.132 1.283 3.748 1.283 1.654 0 3.138-.253 4.4535-.758.724-.278 1.351-.556 1.881-.834.2745-.1527.603-.1736.8946-.057.292.116.516.3575.61.657.2795.8736.633 1.998.8548 2.705zM116.181 23.615c1.0524 0 2.1704-.0386 3.3542-.1163 1.1837-.0778 2.283-.2625 3.2975-.554 1.0147-.2915 1.8604-.7192 2.5367-1.283.6764-.5634 1.0147-1.3312 1.0147-2.303 0-.583-.206-1.176-.62-1.7785-.413-.6026-1.277-.9038-2.593-.9038-1.653 0-3.091.661-4.312 1.9826-1.221 1.3216-2.114 2.9737-2.677 4.956zm27.429-11.953c.5752 0 1.0432.4628 1.0495 1.038l.045 4.093h.2254c.826-1.555 1.832-2.8765 3.015-3.965 1.184-1.0883 2.677-1.6326 4.481-1.6326.512 0 1.087.0656 1.726.1964.285.056.534.228.687.4747.153.2468.196.5462.12.8264-.373 1.383-1.036 3.819-1.41 5.193-.149.546-.703.875-1.254.745-.032-.008-.063-.015-.094-.022-.339-.078-.695-.117-1.071-.117-1.541 0-2.96.515-4.256 1.545-1.297 1.03-2.283 2.225-2.96 3.586l-3.273 16.348c-.098.49-.529.843-1.029.843h-4.787c-.316 0-.614-.142-.814-.386-.199-.245-.278-.566-.215-.875 1.0136-4.945 4.703-22.947 5.545-27.055.1003-.489.53-.839 1.0284-.839h3.2356zM160.7747.8396C160.8745.351 161.3044 0 161.8032 0h4.786c.316 0 .615.1424.8143.3875.1994.245.2777.5667.2133.876l-3.232 15.5295h.2255c.4886-.6996 1.0523-1.3896 1.6912-2.07.6388-.6803 1.3435-1.302 2.1138-1.8658.7705-.5636 1.6066-1.0205 2.5085-1.3702.902-.35 1.8978-.5248 2.9877-.5248 2.0292 0 3.551.7386 4.5658 2.2158 1.0147 1.477 1.522 3.44 1.522 5.8892 0 3.6928-.4978 6.9387-1.4936 9.7375-.996 2.7988-2.302 5.141-3.9178 7.0263-1.616 1.8852-3.439 3.3042-5.468 4.2565-2.03.9523-4.078 1.4285-6.145 1.4285-2.293 0-4.313-.2235-6.06-.6706-1.381-.353-2.497-.7727-3.35-1.259-.375-.2296-.565-.669-.478-1.0993.968-4.763 6.624-32.453 7.685-37.647zm-.0552 33.8543c.4134.311.9207.524 1.522.641.6013.116 1.259.174 1.973.174.9395 0 1.9164-.321 2.931-.962 1.0148-.642 1.945-1.584 2.7904-2.828.845-1.244 1.54-2.77 2.085-4.577.545-1.808 2.57-9.175-1.66-9.175-.752 0-1.494.214-2.227.641-.733.427-1.438.962-2.114 1.603-.677.641-1.287 1.331-1.832 2.07-.545.738-.987 1.438-1.325 2.099l-2.145 10.311z" fill="#4183D7"/>
</svg>
